<svg width="131" height="119" viewBox="0 0 131 119" fill="none" xmlns="http://www.w3.org/2000/svg">
<g filter="url(#filter0_d_3142_90)">
<path fill-rule="evenodd" clip-rule="evenodd" d="M32.1604 62.1043C31.497 63.8669 30.5389 69.081 32.75 73.5608C35.7949 79.7297 38.707 87.2188 44.6042 90.635C46.3081 91.1687 47.6016 91.2866 48.9652 89.7908C49.161 90.6817 49.1126 91.4064 49.7023 91.9939C51.3238 93.6096 55.2478 93.0302 58.031 91.9939C72.0351 86.7798 75.472 78.0888 74.2191 72.8747C80.1265 73.5926 85.0492 74.5794 86.1971 72.4592C86.555 71.7982 86.8964 70.5981 86.6753 69.3496C89.6972 69.7168 90.6006 69.4225 91.7143 65.7763L92.9673 61.0027C98.1951 61.4845 102.549 58.5793 105.497 53.5854C105.796 53.079 107.045 51.4557 107.045 44.9931C107.045 40.9473 111.467 38.2367 111.836 36.9148C112.036 36.1955 111.237 34.9636 110.375 34.0507C111.545 32.3197 112.465 32.1775 115.3 30.8194C109.058 29.424 110.878 23.6958 108.667 20.9786C106.461 17.4535 101.513 15.7824 90.4672 13.3164C84.6063 12.4366 79.1149 12.0519 74.1725 15.1034C70.9807 9.05352 69.2633 7.99447 67.76 7.46581C66.507 7.02518 65.4809 8.78768 63.6382 10.9174C62.527 8.00587 61.9374 7.75957 60.8318 7.17206C58.3437 6.48268 54.7522 7.70461 49.4074 13.7816C48.6647 12.1184 30.5316 8.51448 21.5524 10.8915C18.4721 11.7069 20.7905 14.7238 20.0727 15.5441C19.5873 16.8634 17.2038 15.4446 16.3194 16.6197C13.2918 20.1708 17.0995 33.371 26.5317 42.471C25.0097 43.9853 23.3918 45.6608 22.505 47.0494C20.4412 50.2807 20.5149 52.2635 24.4213 51.8963L23.6843 52.4104C22.6524 53.0713 22.9472 55.0542 23.242 55.6417C24.9156 58.9769 26.0872 59.5362 32.1604 62.1043ZM77.047 57.9917C78.5134 59.3136 79.8879 60.5057 80.8796 61.9574C81.9947 63.8211 84.5118 66.7547 84.9063 68.3215C84.4007 69.4715 83.997 70.0766 84.5019 71.1121C81.7417 72.4502 78.2365 71.6516 70.9294 70.1092C56.9991 66.3638 53.4578 59.2629 57.515 50.2547C54.9275 53.1043 53.9756 56.4775 54.4268 59.7543C44.3218 64.103 29.2122 61.8106 25.0847 54.3198L26.8536 52.4104C33.0448 54.8339 47.4174 42.7165 53.4612 44.3321C52.5991 43.8149 52.1345 43.0837 48.8178 43.7446C45.4159 44.6779 43.8208 45.3582 39.2361 47.5634C34.5927 50.2072 28.2269 51.3571 26.1631 51.2102C23.2886 51.2102 24.016 49.799 23.3623 49.84C30.4185 39.5464 36.22 35.0769 54.72 36.2279C52.2471 35.4505 49.9622 34.8734 47.4174 34.547C45.9433 22.1536 47.6385 14.9566 59.284 9.00803C60.1684 8.55624 60.6844 11.2709 62.6744 12.3862C63.8537 13.0472 63.651 14.0966 63.2641 15.4706C60.6844 23.1817 61.4214 25.1646 64.3868 27.6615C59.7262 21.052 66.5808 17.7473 65.5489 13.4144C65.0613 11.367 65.7736 11.5433 67.3916 9.5221C68.7182 9.22835 71.1505 15.3238 73.6565 18.1144C75.6224 20.3036 78.5948 22.3739 81.2482 25.0177C83.109 26.8718 85.615 35.274 81.9297 39.7158C82.0623 39.6582 82.1908 39.5962 82.3154 39.5299C82.3583 39.5071 82.4008 39.4838 82.4427 39.46C83.0089 39.1387 83.4908 38.7271 83.8951 38.244C87.5369 33.892 84.8769 23.7436 80.7504 21.6878C78.5083 20.5708 77.2598 19.3123 74.8727 16.9062C74.8272 16.8603 74.7813 16.8141 74.735 16.7674C75.2109 16.5393 76.5786 16.4285 77.0199 16.237C81.9775 14.0861 85.0486 14.2074 92.9673 15.691C101.787 18.5531 107.524 19.9617 107.782 25.1646C107.921 27.9552 109.326 29.2686 111.072 30.8194C110.724 31.0554 109.84 32.1089 108.667 32.9239C102.107 31.3083 95.9892 33.0225 90.6825 35.446C99.9693 32.9491 107.782 32.6553 109.772 36.3273C106.949 39.8495 105.045 41.7884 104.834 44.3321C104.834 53.5854 100.836 58.2546 93.0876 59.215C94.3406 56.9384 94.294 52.4813 94.294 52.1901C94.294 48.5181 91.4136 42.3752 87.292 40.4399C85.6888 39.7374 84.2821 39.49 82.9616 39.5778C82.6376 39.5994 82.3187 39.6412 82.0034 39.7013C80.0741 40.0696 78.2781 41.1276 76.242 42.4702C81.9473 40.6753 86.0242 39.4181 90.4672 47.2697C92.5298 50.9147 92.5987 54.8339 91.051 60.1215L88.6187 67.6857C87.4575 68.1276 86.039 67.0982 83.8279 62.7653C83.2212 61.7807 82.798 61.1244 80.3637 59.2402C75.1306 55.2745 73.9503 53.6545 71.9613 50.2547C73.5091 55.2745 74.0192 55.5208 77.047 57.9917ZM42.3375 34.3185C37.713 34.9282 35.372 36.0697 31.8713 38.1373C30.5775 39.0612 29.0141 40.2812 27.7847 41.2225C21.1797 34.599 17.2719 27.2209 17.2719 18.1144C20.2799 18.1212 20.328 17.8 21.0038 17.5752C27.9779 21.1678 31.8365 24.1178 38.4253 29.6443C31.8713 22.0067 26.6054 18.4565 22.1093 15.8861C22.3116 15.2034 22.2839 13.4878 21.5524 12.68C27.6202 11.9845 41.3018 12.7446 48.329 15.3238C45.3786 19.8068 44.575 23.7816 44.9851 34.3185C43.9977 34.2582 43.5774 34.3275 42.3375 34.3185ZM34.0767 62.777C37.762 65.0419 45.4739 64.6495 54.9819 61.6385C55.9401 64.5761 60.5836 70.0105 72.6712 72.8747C74.8087 80.7326 58.9759 93.1809 51.3975 90.4517C51.0898 90.3409 50.5596 90.3531 50.2648 89.325C47.8325 79.3373 54.4931 74.9309 53.4612 68.5418C50.8078 80.5857 48.6928 79.4426 48.6704 87.4407C48.4112 87.457 48.27 87.518 48.007 87.7345C45.5011 90.0111 44.3092 87.7506 42.3317 85.4579C31.7443 70.54 33.3041 69.7503 34.0767 62.777Z" fill="#8D41FF"/>
<path d="M54.9819 61.6385C45.4739 64.6495 37.762 65.0419 34.0767 62.777C33.3041 69.7503 31.7443 70.54 42.3317 85.4579C44.3092 87.7506 45.5011 90.0111 48.007 87.7345C48.27 87.518 48.4112 87.457 48.6704 87.4407C48.6928 79.4426 50.8078 80.5857 53.4612 68.5418C54.4931 74.9309 47.8325 79.3373 50.2648 89.325C50.5596 90.3531 51.0898 90.3409 51.3975 90.4517C58.9759 93.1809 74.8087 80.7326 72.6712 72.8747C60.5836 70.0105 55.9401 64.5761 54.9819 61.6385Z" fill="url(#paint0_linear_3142_90)"/>
<path d="M31.8713 38.1373C35.372 36.0697 37.713 34.9282 42.3375 34.3185C43.5774 34.3275 43.9977 34.2582 44.9851 34.3185C44.575 23.7816 45.3786 19.8068 48.329 15.3238C41.3018 12.7446 27.6202 11.9845 21.5524 12.68C22.2839 13.4878 22.3116 15.2034 22.1093 15.8861C26.6054 18.4565 31.8713 22.0067 38.4253 29.6443C31.8365 24.1178 27.9779 21.1678 21.0038 17.5752C20.328 17.8 20.2799 18.1212 17.2719 18.1144C17.2719 27.2209 21.1797 34.599 27.7847 41.2225C29.0141 40.2812 30.5775 39.0612 31.8713 38.1373Z" fill="url(#paint1_linear_3142_90)"/>
<path d="M90.6825 35.446C95.9892 33.0225 102.107 31.3083 108.667 32.9239C109.84 32.1089 110.724 31.0554 111.072 30.8194C109.326 29.2686 107.921 27.9552 107.782 25.1646C107.524 19.9617 101.787 18.5531 92.9673 15.691C85.0486 14.2074 81.9775 14.0861 77.0199 16.237C76.5786 16.4285 75.2109 16.5393 74.735 16.7674L74.8727 16.9062C77.2598 19.3123 78.5083 20.5708 80.7504 21.6878C84.8769 23.7436 87.5369 33.892 83.8951 38.244L82.9616 39.5778C84.2821 39.49 85.6888 39.7374 87.292 40.4399C91.4136 42.3752 94.294 48.5181 94.294 52.1901C94.294 52.4813 94.3406 56.9384 93.0876 59.215C100.836 58.2546 104.834 53.5854 104.834 44.3321C105.045 41.7884 106.949 39.8495 109.772 36.3273C107.782 32.6553 99.9693 32.9491 90.6825 35.446Z" fill="url(#paint2_linear_3142_90)"/>
<path d="M80.8796 61.9574C79.8879 60.5057 78.5134 59.3136 77.047 57.9917C74.0192 55.5208 73.5091 55.2745 71.9613 50.2547C73.9503 53.6545 75.1306 55.2745 80.3637 59.2402C82.798 61.1244 83.2212 61.7807 83.8279 62.7653C86.039 67.0982 87.4575 68.1276 88.6187 67.6857L91.051 60.1215C92.5987 54.8339 92.5298 50.9147 90.4672 47.2697C86.0242 39.4181 81.9473 40.6753 76.242 42.4702C78.2521 41.1448 80.0283 40.0966 81.9297 39.7158C85.615 35.274 83.109 26.8718 81.2482 25.0177C78.5948 22.3739 75.6224 20.3036 73.6565 18.1144C71.1505 15.3238 68.7182 9.22835 67.3916 9.5221C65.7736 11.5433 65.0613 11.367 65.5489 13.4144C66.5808 17.7473 59.7262 21.052 64.3868 27.6615C61.4214 25.1646 60.6844 23.1817 63.2641 15.4706C63.651 14.0966 63.8537 13.0472 62.6744 12.3862C60.6844 11.2709 60.1684 8.55624 59.284 9.00803C47.6385 14.9566 45.9433 22.1536 47.4174 34.547C49.9622 34.8734 52.2471 35.4505 54.72 36.2279C36.22 35.0769 30.4185 39.5464 23.3623 49.84C24.016 49.799 23.2886 51.2102 26.1631 51.2102C28.2269 51.3571 34.5927 50.2072 39.2361 47.5634C43.8208 45.3582 45.4159 44.6779 48.8178 43.7446C52.1345 43.0837 52.5991 43.8149 53.4612 44.3321C47.4174 42.7165 33.0448 54.8339 26.8536 52.4104L25.0847 54.3198C29.2122 61.8106 44.3218 64.103 54.4268 59.7543C53.9756 56.4775 54.9275 53.1043 57.515 50.2547C53.4578 59.2629 56.9991 66.3638 70.9294 70.1092C78.2365 71.6516 81.7417 72.4502 84.5019 71.1121C83.997 70.0766 84.4007 69.4715 84.9063 68.3215C84.5118 66.7547 81.9947 63.8211 80.8796 61.9574Z" fill="url(#paint3_radial_3142_90)"/>
<path d="M82.9616 39.5778L83.8951 38.244C83.4908 38.7271 83.0089 39.1387 82.4427 39.46C82.4008 39.4838 82.3583 39.5071 82.3154 39.5299L82.0034 39.7013C82.3187 39.6412 82.6376 39.5994 82.9616 39.5778Z" fill="#8841CA"/>
<path d="M81.9297 39.7158C81.9543 39.7108 81.9788 39.706 82.0034 39.7013L82.3154 39.5299C82.1908 39.5962 82.0623 39.6582 81.9297 39.7158Z" fill="#8841CA"/>
</g>
<defs>
<filter id="filter0_d_3142_90" x="4.86374e-05" y="1.7" width="130.6" height="116.6" filterUnits="userSpaceOnUse" color-interpolation-filters="sRGB">
<feFlood flood-opacity="0" result="BackgroundImageFix"/>
<feColorMatrix in="SourceAlpha" type="matrix" values="0 0 0 0 0 0 0 0 0 0 0 0 0 0 0 0 0 0 127 0" result="hardAlpha"/>
<feOffset dy="10"/>
<feGaussianBlur stdDeviation="7.65"/>
<feComposite in2="hardAlpha" operator="out"/>
<feColorMatrix type="matrix" values="0 0 0 0 0.164333 0 0 0 0 0.0845833 0 0 0 0 0.483333 0 0 0 0.39 0"/>
<feBlend mode="normal" in2="BackgroundImageFix" result="effect1_dropShadow_3142_90"/>
<feBlend mode="normal" in="SourceGraphic" in2="effect1_dropShadow_3142_90" result="shape"/>
</filter>
<linearGradient id="paint0_linear_3142_90" x1="65.3" y1="7" x2="65.3" y2="93" gradientUnits="userSpaceOnUse">
<stop stop-color="#8F3FFF"/>
<stop offset="1" stop-color="#AD41FF" stop-opacity="0.32"/>
</linearGradient>
<linearGradient id="paint1_linear_3142_90" x1="14.6367" y1="7.66095" x2="76.9863" y2="52.2315" gradientUnits="userSpaceOnUse">
<stop stop-color="#AD41FF" stop-opacity="0.32"/>
<stop offset="1" stop-color="#8F3FFF"/>
</linearGradient>
<linearGradient id="paint2_linear_3142_90" x1="65.2723" y1="50.0352" x2="110.435" y2="39.0177" gradientUnits="userSpaceOnUse">
<stop stop-color="#8F3FFF"/>
<stop offset="1" stop-color="#AD41FF" stop-opacity="0.3"/>
</linearGradient>
<radialGradient id="paint3_radial_3142_90" cx="0" cy="0" r="1" gradientTransform="matrix(-1.54781 -35.3975 45.3456 -1.96849 65.2723 41.0756)" gradientUnits="userSpaceOnUse">
<stop stop-color="#AD41FF" stop-opacity="0.6"/>
<stop offset="1" stop-color="#8F3FFF" stop-opacity="0.42"/>
</radialGradient>
</defs>
</svg>
